<?xml version="1.0" standalone="no"?><!DOCTYPE svg PUBLIC "-//W3C//DTD SVG 1.1//EN" "http://www.w3.org/Graphics/SVG/1.1/DTD/svg11.dtd"><svg t="1605751825323" class="icon" viewBox="0 0 1024 1024" version="1.1" xmlns="http://www.w3.org/2000/svg" p-id="3351" xmlns:xlink="http://www.w3.org/1999/xlink" width="200" height="200"><defs><style type="text/css"></style></defs><path d="M510.542 991.981c-263.899 0-478.604-214.7-478.604-478.611 0-263.898 214.705-478.603 478.604-478.603 263.904 0 478.61 214.705 478.61 478.603-0.001 263.91-214.706 478.611-478.61 478.611v0zM510.542 74.049c-242.24 0-439.321 197.075-439.321 439.319 0 242.241 197.076 439.327 439.321 439.327 242.246 0 439.327-197.087 439.327-439.327 0-242.239-197.082-439.319-439.327-439.319v0zM431.718 510.547l3.275-9.338 29.441-83.787c6.919-19.695 25.607-32.925 46.497-32.925 20.884 0 39.572 13.23 46.509 32.95l32.703 93.1 34.626 0.687v-250.702c0-5.006-2-9.831-5.552-13.401-3.561-3.552-8.379-5.53-13.396-5.53h-189.777c-10.463 0-18.953 8.467-18.953 18.93v250.706l34.626-0.691zM689.268 550.473l-126.195-2.555-4.009-11.422-37.407-106.501c-1.603-4.528-5.901-7.594-10.732-7.594-4.828 0-9.137 3.066-10.746 7.594l-41.408 117.923-7.594 0.158-16.19 0.311-18.948 0.41-83.468 1.676c-4.861 0.102-9.117 3.263-10.604 7.879-1.488 4.626 0.114 9.665 4.009 12.582l100.484 75.401-36.519 119.394c-1.407 4.635 0.261 9.636 4.166 12.506 0.985 0.724 2.060 1.253 3.189 1.615 0.363 0.128 0.746 0.114 1.125 0.218 0.767 0.145 1.531 0.338 2.32 0.345 0.034 0 0.067 0.013 0.085 0.013 0.724 0 1.424-0.166 2.149-0.32 0.379-0.073 0.777-0.038 1.151-0.166 1.105-0.341 2.166-0.832 3.151-1.514l103.648-71.382 103.652 71.382c1.945 1.341 4.191 2 6.443 2 2.357 0 4.72-0.72 6.733-2.196 3.905-2.865 5.565-7.888 4.158-12.501l-36.541-119.394 100.514-75.401c3.872-2.916 5.475-7.961 3.99-12.582-1.491-4.617-5.743-7.776-10.607-7.878v0zM689.268 550.473z" p-id="3352"></path></svg>