<?xml version="1.0" standalone="no"?><!DOCTYPE svg PUBLIC "-//W3C//DTD SVG 1.1//EN" "http://www.w3.org/Graphics/SVG/1.1/DTD/svg11.dtd"><svg t="1599844533639" class="icon" viewBox="0 0 1024 1024" version="1.1" xmlns="http://www.w3.org/2000/svg" p-id="6137" xmlns:xlink="http://www.w3.org/1999/xlink" width="200" height="200"><defs><style type="text/css"></style></defs><path d="M572.1 157h232.6v46.5H572.1V157zM572.1 254.9h232.6v46.5H572.1v-46.5zM572.1 352.7h232.6v46.5H572.1v-46.5zM227.2 512.9H800v46.5H227.2v-46.5zM227.2 656H800v46.5H227.2V656zM227.2 799.1H800v46.5H227.2v-46.5z" p-id="6138"></path><path d="M826.4 0.5H298.8L285.2 0l-0.3 0.5h-0.1v0.2L106.5 326.4h-1.1l-0.5 608.5c0 49.2 41.6 89.1 92.7 89.1H826.4c51.1 0 92.7-40 92.7-89.1V89.6c0-49.1-41.6-89.1-92.7-89.1zM301.6 48.4l71.1 72.5c17.1 17.4 14 46-6.3 59.5L147.6 324.9l154-276.5z m570.9 775.3V934.8c0 23.5-20.7 42.6-46.2 42.6H197.6c-25.5 0-46.2-19.1-46.2-42.6l0.4-559.6 242.9-160.7c43.3-28.7 50.1-89.6 14-127.1l-39-40.5h456.6c25.4 0 46.2 19.1 46.2 42.6v734.2z" p-id="6139"></path></svg>