<?xml version="1.0" standalone="no"?><!DOCTYPE svg PUBLIC "-//W3C//DTD SVG 1.1//EN" "http://www.w3.org/Graphics/SVG/1.1/DTD/svg11.dtd"><svg t="1605751699105" class="icon" viewBox="0 0 1024 1024" version="1.1" xmlns="http://www.w3.org/2000/svg" p-id="2563" xmlns:xlink="http://www.w3.org/1999/xlink" width="200" height="200"><defs><style type="text/css"></style></defs><path d="M512 960C264.576 960 64 759.424 64 512S264.576 64 512 64s448 200.576 448 448-200.576 448-448 448z m0-64c212.077 0 384-171.923 384-384S724.077 128 512 128 128 299.923 128 512s171.923 384 384 384z m-76-592h120.5c79.253 0 143.5 64.247 143.5 143.5S635.753 591 556.5 591H436v202h-64V304h64z m0 64.002v158.996l0.5 0.002h120c43.907 0 79.5-35.593 79.5-79.5S600.407 368 556.5 368h-120c-0.167 0-0.333 0-0.5 0.002z" p-id="2564"></path></svg>