<?xml version="1.0" standalone="no"?><!DOCTYPE svg PUBLIC "-//W3C//DTD SVG 1.1//EN" "http://www.w3.org/Graphics/SVG/1.1/DTD/svg11.dtd"><svg t="1599838809880" class="icon" viewBox="0 0 1024 1024" version="1.1" xmlns="http://www.w3.org/2000/svg" p-id="4681" xmlns:xlink="http://www.w3.org/1999/xlink" width="200" height="200"><defs><style type="text/css"></style></defs><path d="M689.6 460.5c-10 0-19-7.1-21-17.3-2.3-11.6 5.3-22.8 16.9-25.1 71.2-13.9 125.7-71.6 135.5-143.6 6.1-44.9-5.6-89.4-33-125.5-27.4-36-67.2-59.3-112.1-65.4-45.7-6.3-90.6 5.9-126.8 34.1-9.4 7.2-22.8 5.5-30-3.8-7.2-9.3-5.6-22.8 3.8-30 45.4-35.3 101.8-50.3 158.8-42.7 116 15.8 197.5 123 181.7 238.9-12.3 90.1-80.4 162.3-169.6 179.8-1.5 0.5-2.9 0.6-4.2 0.6z m334.6 468.9c2.4-191.1-131.7-358.4-319-397.8-20.5-4.3-41.3-7-61.8-8.1-11.6-0.7-21.9 8.5-22.5 20.2-0.6 11.8 8.4 21.9 20.2 22.5 18.4 1 37 3.4 55.3 7.2 167.3 35.1 287.2 184.6 285 355.4-0.1 11.8 9.3 21.5 21.1 21.6h0.3c11.7 0.1 21.2-9.3 21.4-21zM465.1 584.5c85.2-29 142.5-109 142.5-199 0-115.9-94.3-210.2-210.2-210.2-115.9 0-210.2 94.3-210.2 210.2 0 89.8 57 169.6 141.8 198.8 11.1 3.8 23.3-2.1 27.2-13.3s-2.1-23.3-13.3-27.2c-67.6-23.3-113-86.9-113-158.4 0-92.3 75.1-167.5 167.5-167.5S564.9 293 564.9 385.4c0 71.7-45.6 135.5-113.5 158.6-11.2 3.8-17.2 15.9-13.3 27.1 3 8.9 11.3 14.5 20.2 14.5 2.2 0 4.6-0.3 6.8-1.1z m309.4 379.2c11.6-2.3 19.1-13.5 16.8-25.1C754.4 751.1 588.7 615 397.4 615s-357 136.1-394 323.6c-2.3 11.6 5.3 22.8 16.8 25.1 11.6 2.2 22.8-5.3 25.1-16.8 33-167.6 181-289.2 352-289.2s319 121.6 352 289.2c2 10.2 11 17.2 21 17.2 1.4 0 2.8-0.1 4.2-0.4z" p-id="4682"></path></svg>